<svg width="27" height="27" viewBox="0 0 27 27" fill="none" xmlns="http://www.w3.org/2000/svg">
<path d="M12.9603 0.863888C20.16 0.744293 26.0919 6.46094 26.2115 13.6127C26.355 20.8124 20.6623 26.7204 13.4866 26.8639C6.23909 27.0074 0.331086 21.2668 0.211491 14.0672C0.0918959 6.84365 5.83247 1.03132 12.9603 0.863888ZM25.3743 13.8519C25.3743 7.10676 19.9208 1.67714 13.1756 1.70105C6.5022 1.70105 1.04866 7.17852 1.04866 13.8519C1.04866 20.5971 6.5022 26.0506 13.2235 26.0506C19.9208 26.0267 25.3982 20.5493 25.3743 13.8519Z" fill="#007EBB"/>
<path d="M11.334 8.82904C11.5014 8.11147 11.6689 7.44174 11.8363 6.77201C12.1472 5.5043 12.4582 4.23659 12.7691 2.9928C12.817 2.75361 12.9366 2.56226 13.1997 2.56226C13.4867 2.56226 13.5824 2.75361 13.6302 2.9928C14.0847 4.8824 14.5631 6.77201 15.0175 8.66161C15.0414 8.70945 15.0414 8.75729 15.0654 8.82904C15.185 8.75729 15.3045 8.70945 15.4241 8.66161C17.2181 7.77661 19.0359 6.8916 20.8298 6.0066C20.9494 5.93484 21.1169 5.887 21.2604 5.91092C21.5713 5.95876 21.667 6.31755 21.4517 6.60457C20.8538 7.3939 20.2558 8.18323 19.6578 8.99648C18.9881 9.85756 18.3423 10.7426 17.6725 11.6037C17.6247 11.6754 17.5769 11.7472 17.5051 11.8428C17.9835 12.082 18.4619 12.3212 18.9402 12.5365C20.6624 13.3737 22.3846 14.2108 24.0828 15.048C24.1546 15.0719 24.2503 15.0958 24.2981 15.1676C24.3938 15.3111 24.4895 15.4546 24.4895 15.6221C24.4895 15.8134 24.322 15.933 24.1068 15.9569C24.035 15.9569 23.9393 15.9569 23.8676 15.9569C21.6192 15.9569 19.3708 15.9569 17.1224 15.9569C17.0267 15.9569 16.9071 15.9569 16.7875 15.9569C17.0506 17.0094 17.2898 18.0379 17.5529 19.0903C17.8878 20.5015 18.2466 21.9128 18.5815 23.3001C18.6532 23.5871 18.5815 23.7784 18.3901 23.8741C18.1748 23.9698 18.0074 23.922 17.816 23.6589C16.357 21.7453 14.8979 19.8079 13.4628 17.8944C13.391 17.7748 13.2953 17.6791 13.1997 17.5356C12.7691 18.1096 12.3625 18.6359 11.9559 19.186C10.8317 20.669 9.70749 22.1759 8.55938 23.6589C8.4637 23.7784 8.29627 23.898 8.15275 23.898C7.86572 23.9459 7.69829 23.6589 7.77005 23.324C8.10491 21.9845 8.43978 20.6211 8.75073 19.2817C9.01384 18.1814 9.30087 17.0811 9.56398 15.9569C9.44438 15.9569 9.32479 15.9569 9.22911 15.9569C6.98072 15.9569 4.75625 15.9569 2.50786 15.9569C2.4361 15.9569 2.34043 15.9569 2.26867 15.9569C2.0534 15.9569 1.90988 15.8373 1.86204 15.6221C1.81421 15.4068 1.90988 15.2393 2.10123 15.1437C2.67529 14.8566 3.22543 14.5935 3.79949 14.3065C5.42598 13.5172 7.02856 12.7278 8.65505 11.9385C8.72681 11.9146 8.77465 11.8668 8.87032 11.8189C8.79857 11.7232 8.75073 11.6515 8.70289 11.5558C7.48302 9.95324 6.28707 8.35066 5.0672 6.74809C5.01936 6.70025 4.99544 6.62849 4.9476 6.58066C4.80409 6.3893 4.75625 6.19795 4.92368 6.0066C5.09112 5.81525 5.28247 5.81525 5.49774 5.93484C6.59801 6.48498 7.69829 7.0112 8.82249 7.56134C9.63573 7.99188 10.4729 8.3985 11.334 8.82904ZM15.759 15.1198C15.6394 14.6414 15.5437 14.1869 15.4241 13.7564C15.3524 13.4693 15.3763 13.2541 15.5677 13.0388C15.8068 12.7518 15.9982 12.4647 16.2374 12.1538C15.8547 11.9624 15.5198 11.795 15.161 11.6276C14.9458 11.5319 14.8262 11.3645 14.7783 11.1492C14.7066 10.7904 14.6109 10.4316 14.5152 10.0489C14.2282 10.1924 13.9651 10.2881 13.7259 10.4316C13.391 10.6469 13.0801 10.6469 12.7213 10.4316C12.4821 10.2881 12.1951 10.1685 11.908 10.025C11.8124 10.3838 11.7167 10.7426 11.6449 11.0774C11.5971 11.3884 11.4536 11.5558 11.2144 11.6754C10.8795 11.8189 10.5447 11.9864 10.2098 12.1777C10.3772 12.393 10.4968 12.6083 10.6643 12.7996C11.047 13.1823 11.1187 13.5889 10.9274 14.1152C10.8078 14.45 10.7599 14.8088 10.6643 15.1676C11.1666 15.1676 11.621 15.1676 12.0755 15.1676C12.3386 15.1676 12.506 15.2393 12.6495 15.4546C12.817 15.6938 13.0083 15.933 13.2236 16.1961C13.4149 15.9569 13.6063 15.7416 13.7498 15.5025C13.9172 15.2393 14.1325 15.1437 14.4435 15.1676C14.874 15.1437 15.2806 15.1198 15.759 15.1198ZM22.1693 15.1198C22.1693 15.0958 22.1932 15.0958 22.1932 15.0719C20.4711 14.2347 18.7489 13.3976 17.0028 12.5365C16.7636 12.8474 16.5244 13.1584 16.3091 13.4693C16.2852 13.5172 16.2613 13.5889 16.2613 13.6368C16.3809 14.1391 16.5005 14.6175 16.6201 15.1198C18.4858 15.1198 20.3275 15.1198 22.1693 15.1198ZM4.23003 15.0719C4.23003 15.0958 4.23003 15.0958 4.25395 15.1198C6.09571 15.1198 7.9614 15.1198 9.80317 15.1198C9.92276 14.6414 10.0424 14.163 10.162 13.6846C10.1859 13.6129 10.162 13.5411 10.138 13.4933C9.89884 13.1823 9.65965 12.8714 9.42046 12.5365C7.67437 13.3976 5.9522 14.2347 4.23003 15.0719ZM17.2659 21.5061C17.2898 21.5061 17.3137 21.4822 17.3137 21.4822C16.8593 19.6405 16.4048 17.7987 15.9743 15.9569C15.472 15.9569 14.9936 15.9569 14.5152 15.9569C14.4674 15.9569 14.3956 15.9808 14.3717 16.0287C14.1564 16.2918 13.9651 16.5549 13.7498 16.8419C14.9218 18.4206 16.0939 19.9753 17.2659 21.5061ZM10.449 15.9569C9.99452 17.8226 9.54006 19.6405 9.08559 21.4822C9.10951 21.4822 9.13343 21.5061 9.13343 21.5061C10.3055 19.9514 11.4775 18.4206 12.6495 16.8419C12.4343 16.5549 12.2429 16.2918 12.0276 16.0526C12.0037 16.0048 11.932 15.9569 11.8841 15.9569C11.4536 15.9569 10.9513 15.9569 10.449 15.9569ZM9.65965 11.4841C9.75533 11.4362 9.80317 11.4123 9.87492 11.3884C10.1859 11.221 10.5925 11.1492 10.7838 10.91C10.9752 10.6708 10.9752 10.2642 11.0709 9.92932C11.1187 9.73797 11.0709 9.66621 10.9034 9.59445C9.56398 8.94864 8.22451 8.27891 6.88504 7.63309C6.8372 7.60917 6.76545 7.58525 6.64585 7.53742C7.69829 8.85296 8.67897 10.1685 9.65965 11.4841ZM16.7636 11.4841C17.7682 10.1685 18.7489 8.87688 19.7296 7.53742C19.6578 7.53742 19.6578 7.53742 19.6339 7.53742C18.2227 8.23107 16.8354 8.9008 15.4241 9.59445C15.3524 9.61837 15.3045 9.76189 15.3285 9.83364C15.3763 10.1446 15.472 10.4555 15.5437 10.7426C15.5677 10.8143 15.6155 10.91 15.6873 10.9339C16.046 11.1253 16.3809 11.2927 16.7636 11.4841ZM14.2999 9.21175C13.9412 7.75269 13.5824 6.29363 13.2236 4.85848C13.1997 4.85848 13.1758 4.85848 13.1518 4.85848C12.793 6.29363 12.4343 7.75269 12.0994 9.21175C12.4343 9.37918 12.7691 9.54662 13.104 9.69013C13.1518 9.71405 13.2236 9.71405 13.2714 9.69013C13.6302 9.54662 13.9651 9.37918 14.2999 9.21175Z" fill="#007EBB"/>
<path d="M13.2236 25.1897C12.2907 25.1897 11.5493 24.4243 11.5493 23.5154C11.5493 22.6064 12.2907 21.841 13.2236 21.841C14.1564 21.841 14.9218 22.6064 14.9218 23.5393C14.874 24.4482 14.1325 25.1897 13.2236 25.1897ZM14.0608 23.5154C14.0608 23.0609 13.6781 22.6782 13.2236 22.6782C12.7691 22.6782 12.3864 23.0609 12.3864 23.5393C12.4103 23.9937 12.793 24.3525 13.2475 24.3525C13.6781 24.3525 14.0608 23.9698 14.0608 23.5154Z" fill="#007EBB"/>
<path d="M22.0258 9.66621C22.4085 9.66621 22.8151 9.66621 23.1978 9.66621C23.6044 9.66621 23.7958 9.95324 23.6044 10.312C23.1978 11.1253 22.7912 11.9385 22.3846 12.7518C22.3128 12.8714 22.1215 12.991 22.0019 12.991C21.8823 12.991 21.6909 12.8714 21.6192 12.7518C21.1886 11.9385 20.782 11.1253 20.3754 10.2881C20.2079 9.95324 20.3993 9.66621 20.782 9.66621C21.2125 9.66621 21.6192 9.66621 22.0258 9.66621ZM22.0258 11.6754C22.2411 11.2688 22.4085 10.91 22.5998 10.5512C22.2171 10.5512 21.8584 10.5512 21.4757 10.5512C21.6431 10.91 21.8105 11.2688 22.0258 11.6754Z" fill="#007EBB"/>
<path d="M5.64123 20.1667C5.25853 20.1667 4.87582 20.1667 4.49312 20.1667C4.06258 20.1667 3.87122 19.8797 4.06258 19.4969C4.44528 18.7076 4.85191 17.8944 5.25853 17.105C5.33029 16.9854 5.52164 16.8419 5.66515 16.8419C5.80867 16.8419 6.00002 16.9615 6.07178 17.105C6.50232 17.8944 6.88502 18.7076 7.29165 19.5209C7.45908 19.8797 7.26773 20.1667 6.88502 20.1667C6.45448 20.1667 6.04786 20.1667 5.64123 20.1667ZM5.66515 18.1575C5.44988 18.5641 5.28245 18.9229 5.0911 19.3056C5.49772 19.3056 5.83259 19.3056 6.23921 19.3056C6.04786 18.9229 5.88042 18.588 5.66515 18.1575Z" fill="#007EBB"/>
<path d="M11.1426 5.07376C11.0708 5.19335 11.023 5.31295 10.9512 5.38471C10.5685 5.79133 10.1619 6.17403 9.77921 6.58066C9.54002 6.79593 9.34867 6.79593 9.10948 6.58066C8.70286 6.19795 8.32015 5.79133 7.91353 5.38471C7.69826 5.14552 7.69826 4.95416 7.91353 4.71497C8.29623 4.30835 8.70286 3.92564 9.10948 3.51902C9.34867 3.30375 9.54002 3.27983 9.77921 3.51902C10.1858 3.92564 10.5925 4.30835 10.9752 4.71497C11.0469 4.83457 11.0948 4.95416 11.1426 5.07376ZM10.0662 5.1216C9.82705 4.88241 9.61178 4.66714 9.42043 4.47578C9.22908 4.66714 9.0138 4.88241 8.82245 5.04984C9.03772 5.24119 9.22908 5.45646 9.46827 5.67174C9.49219 5.64782 9.54002 5.6239 9.56394 5.57606C9.73138 5.43254 9.92273 5.26511 10.0662 5.1216Z" fill="#007EBB"/>
<path d="M17.8161 5.04985C17.8161 5.43256 17.8161 5.83918 17.8161 6.22188C17.8161 6.58067 17.6247 6.7481 17.2659 6.72418C16.4048 6.67635 15.7112 5.91094 15.7112 5.04985C15.7112 4.16485 16.4048 3.42336 17.2659 3.37552C17.6247 3.3516 17.8161 3.51903 17.8161 3.87782C17.84 4.28444 17.8161 4.66715 17.8161 5.04985ZM16.9789 4.38012C16.4048 4.64323 16.4766 5.55215 16.9789 5.7435C16.9789 5.28904 16.9789 4.83458 16.9789 4.38012Z" fill="#007EBB"/>
<path d="M19.6817 18.899C19.7535 19.1382 19.8252 19.3534 19.897 19.6165C19.6339 19.7122 19.3708 19.784 19.1077 19.8796C18.9642 19.4252 18.7967 18.9946 18.6771 18.5641C18.6054 18.2771 18.8206 18.0618 19.1555 18.0618C19.9448 18.0618 20.7342 18.0618 21.5235 18.0618C21.6192 18.0618 21.7149 18.0618 21.8584 18.0618C21.7866 17.8226 21.7148 17.6073 21.6431 17.3442C21.9062 17.2485 22.1693 17.1768 22.4324 17.0811C22.5759 17.5117 22.7434 17.9422 22.863 18.3727C22.9586 18.6598 22.7434 18.899 22.4085 18.899C21.6192 18.899 20.8298 18.899 20.0166 18.899C19.897 18.899 19.8013 18.899 19.6817 18.899Z" fill="#007EBB"/>
<path d="M5.97607 11.2449C5.16283 11.6515 4.39742 12.0342 3.63201 12.4169C3.51241 12.4647 3.34498 12.5365 3.2493 12.4887C3.10579 12.4408 2.96227 12.2973 2.93835 12.1538C2.84268 11.7233 2.79484 11.2927 2.72308 10.8383C3.01011 10.7904 3.27322 10.7665 3.53633 10.7187C3.58417 10.9578 3.60809 11.197 3.65593 11.4601C4.34958 11.1253 4.99539 10.7904 5.66513 10.4555C5.83256 10.3838 5.97607 10.2881 6.14351 10.2164C6.40662 10.0968 6.66973 10.2164 6.71756 10.5034C6.81324 10.9339 6.86108 11.3884 6.90892 11.8429C6.62189 11.8907 6.3827 11.9146 6.09567 11.9624C6.07175 11.7472 6.02391 11.508 5.97607 11.2449Z" fill="#007EBB"/>
<path d="M13.2236 11.3405C14.1564 11.3405 14.8979 12.106 14.8979 13.0388C14.8979 13.9716 14.1325 14.7131 13.1997 14.6892C12.2907 14.6892 11.5493 13.9238 11.5493 13.0149C11.5253 12.106 12.2907 11.3405 13.2236 11.3405ZM13.1997 12.2016C12.7452 12.2016 12.3625 12.5843 12.3625 13.0388C12.3625 13.5172 12.7452 13.876 13.2236 13.876C13.678 13.876 14.0608 13.4693 14.0368 13.0149C14.0368 12.5604 13.6541 12.1777 13.1997 12.2016Z" fill="#007EBB"/>
</svg>
