<svg width="27" height="27" viewBox="0 0 27 27" fill="none" xmlns="http://www.w3.org/2000/svg">
<path d="M0.211609 21.0253C0.211609 20.3726 0.211609 19.7743 0.211609 19.1216C0.211609 18.6864 0.374448 18.5232 0.808686 18.5232C1.78572 18.5776 2.6542 18.2513 3.46839 17.7617C4.33687 17.2178 5.20535 16.7283 6.07382 16.1843C6.61662 15.858 7.2137 15.6948 7.86505 15.6404C9.98196 15.5316 12.0446 15.3684 14.1615 15.2596C14.8671 15.2052 15.3014 15.8036 15.03 16.4563C14.9214 16.7283 14.7043 16.8914 14.4329 16.9458C13.3473 17.1634 12.2074 17.3266 11.1218 17.5442C10.3619 17.6529 10.0362 17.9793 9.8734 18.7408C9.81912 19.0672 9.76484 19.3935 9.65628 19.7199C9.54772 20.3726 9.81912 20.9165 10.4705 21.1885C11.8818 21.7324 13.2387 22.222 14.65 22.7659C15.03 22.8747 15.3557 22.8747 15.6813 22.7659C18.7753 21.7324 21.8692 20.699 24.9632 19.6655C25.6145 19.4479 26.1573 19.7199 26.2659 20.3182C26.3744 20.699 26.1573 21.1341 25.7231 21.3517C24.4747 22.0044 23.2262 22.7115 21.9778 23.3642C20.1866 24.3433 18.3953 25.268 16.6584 26.2471C15.5728 26.8998 14.4872 27.0086 13.293 26.6822C9.11349 25.5944 4.93395 24.6153 0.754406 23.5818C0.320168 23.473 0.211609 23.3642 0.211609 22.8747C0.211609 22.222 0.211609 21.6237 0.211609 21.0253Z" fill="#007EBB"/>
<path d="M10.4705 7.15503C10.4162 7.04625 10.3619 6.88307 10.2533 6.77428C9.71054 6.23035 9.16774 5.63202 8.62494 5.08809C8.40782 4.87051 8.29926 4.70733 8.40782 4.38097C8.51638 4.10901 8.7335 4.05461 8.95062 4.00022C9.71054 3.89143 10.4705 3.78265 11.2304 3.67386C11.5018 3.61947 11.6103 3.51068 11.7189 3.29311C12.0446 2.58599 12.4245 1.82449 12.7502 1.11738C12.8045 0.954196 12.9673 0.791016 13.2387 0.791016C13.5101 0.791016 13.6187 0.954196 13.7272 1.17177C14.0529 1.87888 14.3786 2.58599 14.7586 3.29311C14.8671 3.51068 15.03 3.67386 15.3014 3.67386C16.0613 3.78265 16.8755 3.89143 17.6354 4.05461C17.8525 4.10901 18.0153 4.21779 18.1239 4.43537C18.1782 4.65294 18.1239 4.87051 17.9611 5.03369C17.4183 5.63202 16.8212 6.17595 16.2784 6.77428C16.0613 6.99185 16.007 7.15503 16.0613 7.427C16.2241 8.2429 16.3327 9.00441 16.4412 9.8203C16.4955 10.0923 16.4412 10.3098 16.2241 10.473C16.007 10.6362 15.8441 10.5818 15.627 10.4186C14.9757 10.0379 14.27 9.71152 13.6187 9.33076C13.3473 9.16759 13.1302 9.16759 12.8588 9.33076C12.2074 9.71152 11.556 10.0379 10.9047 10.4186C10.6876 10.5274 10.4705 10.6362 10.2533 10.473C10.0362 10.3098 9.98194 10.0923 10.0362 9.8203C10.1991 8.95001 10.3076 8.13411 10.4705 7.15503Z" fill="#007EBB"/>
<path d="M1.40577 11.1801C1.51433 10.6362 1.56861 10.0923 1.67717 9.54835C1.73145 9.27638 1.67717 9.05881 1.46005 8.84123C1.08009 8.46048 0.70013 8.13412 0.374452 7.75337C0.320172 7.69897 0.211612 7.53579 0.265892 7.42701C0.265892 7.37261 0.428731 7.26383 0.537291 7.26383C1.02581 7.15504 1.51433 7.10065 2.00284 7.04625C2.27424 6.99186 2.43708 6.88307 2.59992 6.61111C2.81704 6.12157 3.03416 5.63203 3.25128 5.19688C3.30556 5.0881 3.41412 4.97931 3.4684 4.97931C3.52268 4.97931 3.63124 5.0881 3.68552 5.19688C3.90264 5.68642 4.17403 6.12157 4.33687 6.61111C4.44543 6.88307 4.66255 6.99186 4.93395 7.04625C5.42247 7.10065 5.91099 7.15504 6.3995 7.26383C6.50806 7.26383 6.6709 7.37261 6.6709 7.42701C6.6709 7.53579 6.61662 7.69897 6.56234 7.75337C6.18238 8.13412 5.85671 8.51487 5.47675 8.89563C5.31391 9.05881 5.25963 9.22199 5.25963 9.49395C5.36819 10.0379 5.42247 10.5274 5.53103 11.0714C5.53103 11.1801 5.53103 11.3433 5.42247 11.4521C5.36819 11.5065 5.20535 11.4521 5.09679 11.3977C4.66255 11.1801 4.22831 10.9082 3.7398 10.6906C3.52268 10.5818 3.35984 10.5818 3.14272 10.6906C2.6542 10.9626 2.21996 11.2345 1.73145 11.4521C1.51433 11.5609 1.35149 11.4521 1.40577 11.1801Z" fill="#007EBB"/>
<path d="M20.8922 11.1801C21.0008 10.6906 21.0551 10.2011 21.1636 9.65713C21.2179 9.33077 21.1636 9.05881 20.8922 8.78684C20.5123 8.46048 20.1866 8.13412 19.8609 7.75337C19.8066 7.64458 19.6981 7.53579 19.7523 7.42701C19.7523 7.31822 19.9152 7.26383 20.0237 7.26383C20.5123 7.15504 21.0008 7.10065 21.4893 7.04625C21.7607 6.99186 21.9778 6.88307 22.0864 6.61111C22.3035 6.17596 22.4663 5.74082 22.7377 5.30567C22.792 5.19688 22.9006 5.0881 23.0091 4.97931C23.1177 5.0881 23.2262 5.19688 23.2805 5.30567C23.4976 5.74082 23.7148 6.17596 23.8776 6.61111C23.9862 6.88307 24.2033 6.99186 24.4747 7.04625C24.9632 7.10065 25.4517 7.15504 25.886 7.26383C25.9945 7.26383 26.1574 7.37261 26.2116 7.42701C26.2116 7.53579 26.1574 7.69897 26.0488 7.75337C25.7231 8.13412 25.3974 8.46048 25.0175 8.78684C24.8004 9.00441 24.7461 9.22199 24.8004 9.49395C24.9089 9.98349 24.9632 10.5274 25.0718 11.0714C25.0718 11.1801 25.0718 11.3433 24.9632 11.3977C24.9089 11.4521 24.7461 11.3977 24.6918 11.3433C24.2576 11.1258 23.769 10.8538 23.3348 10.5818C23.1177 10.473 22.9006 10.473 22.6834 10.5818C22.2492 10.8538 21.7607 11.0714 21.3265 11.3433C21.0551 11.5609 20.8922 11.4521 20.8922 11.1801Z" fill="#007EBB"/>
<path d="M16.7126 21.2429C16.7669 21.1885 16.8212 21.1341 16.8755 21.0797C18.2868 19.6655 19.698 18.3057 21.1636 16.8914C21.5435 16.5107 21.9235 16.5107 22.2492 16.7827C22.5749 17.0546 22.6291 17.4898 22.3035 17.8705C21.8692 18.5232 21.3807 19.1216 20.9465 19.7743C20.8922 19.8287 20.8379 19.9375 20.7293 19.9375C19.4266 20.427 18.0696 20.8622 16.7126 21.2429Z" fill="#007EBB"/>
</svg>
