<svg width="24" height="25" viewBox="0 0 24 25" fill="none" xmlns="http://www.w3.org/2000/svg">
<path d="M0.849854 9.41556C0.849854 8.51091 0.849854 7.60625 0.849854 6.70159C0.849854 4.99871 2.09616 3.61512 3.90897 3.29583C5.15527 3.08297 6.45823 2.81689 7.70454 2.60403C7.93114 2.55082 8.21439 2.44439 8.44099 2.33796C9.12079 1.96545 9.74394 1.59295 10.3671 1.22044C11.6701 0.475429 12.973 0.475429 14.276 1.22044C14.8425 1.53973 15.3523 1.80581 15.8622 2.1251C16.4287 2.4976 16.9952 2.65725 17.675 2.76368C18.7513 2.97654 19.8843 3.13618 20.9607 3.40226C22.6602 3.77476 23.7932 5.05193 23.8499 6.70159C23.8499 8.51091 23.9065 10.3202 23.7932 12.1295C23.6233 15.216 22.4336 17.93 20.2809 20.2714C18.2981 22.4533 15.8055 23.8901 12.8031 24.6883C12.3499 24.7947 11.8967 24.7415 11.5001 24.5819C5.89173 22.879 2.43606 19.3668 1.13311 13.9388C0.793204 12.3956 0.849854 10.9056 0.849854 9.41556ZM21.9237 9.46878H21.8671C21.8671 8.56412 21.8671 7.65946 21.8671 6.75481C21.8671 5.90337 21.3572 5.318 20.4508 5.15836C19.4311 4.9455 18.4681 4.78585 17.4484 4.57299C16.5986 4.41334 15.7489 4.2537 15.0124 3.77476C14.5026 3.45547 13.8794 3.13618 13.3129 2.76368C12.6898 2.39117 12.0666 2.39117 11.3868 2.76368C10.707 3.13618 10.0838 3.5619 9.40404 3.88119C9.00749 4.09405 8.61094 4.2537 8.15774 4.36013C6.91143 4.6262 5.66513 4.89228 4.41882 5.10514C3.28582 5.318 2.77596 5.85015 2.77596 6.91445C2.77596 8.29805 2.77596 9.68164 2.77596 11.0652C2.77596 11.7038 2.83261 12.3956 2.94591 13.0342C3.90897 17.9832 6.96808 21.2293 12.0666 22.7725C12.1799 22.8258 12.4065 22.8258 12.5198 22.7725C13.4262 22.4533 14.3326 22.1872 15.1824 21.7615C18.808 19.8457 21.0173 16.9189 21.6405 13.0874C21.8671 11.8635 21.8671 10.6395 21.9237 9.46878Z" fill="#007EBB"/>
<path d="M11.0469 13.8856C11.2168 13.726 11.3301 13.5663 11.4434 13.4599C12.803 12.1827 14.1626 10.9056 15.5222 9.62842C15.8055 9.36234 16.202 9.20269 16.5986 9.36234C16.9385 9.46877 17.1651 9.68163 17.2784 10.0541C17.3917 10.4266 17.2217 10.7459 16.9385 11.012C15.8055 12.0763 14.6725 13.1406 13.5395 14.1517C12.973 14.6838 12.4065 15.216 11.84 15.7481C11.3301 16.2271 10.7636 16.2271 10.2538 15.7481C9.63062 15.1628 9.06411 14.6306 8.44096 14.0453C7.98776 13.6195 7.93111 13.0342 8.38431 12.6617C8.78086 12.2892 9.40402 12.3424 9.85722 12.7681C10.2538 13.0874 10.6503 13.4599 11.0469 13.8856Z" fill="#007EBB"/>
</svg>
